<?xml version="1.0" encoding="UTF-8"?>
<svg id="Layer_1" data-name="Layer 1" xmlns="http://www.w3.org/2000/svg" viewBox="0 0 278.4 50.31">
  <defs>
    <style>
      .cls-1 {
        fill: #231f20;
        stroke-width: 0px;
      }
    </style>
  </defs>
  <path class="cls-1" d="M53.09,7.08c-3.71,2.3-7.26,5.08-10.63,8.33-3.38,3.25-6.76,7.08-10.15,11.5-2.24,2.85-4.32,5.46-6.24,7.82-1.92,2.37-3.8,4.41-5.64,6.12-1.84,1.71-3.68,3.05-5.52,4.01-1.84.96-3.77,1.44-5.78,1.44-1.15,0-2.22-.18-3.19-.53-.98-.35-1.82-.86-2.52-1.51-.7-.66-1.26-1.43-1.66-2.33-.4-.9-.6-1.89-.6-2.98s.22-2.11.65-2.98c.43-.86,1.1-1.62,1.99-2.26l2.88,3.5c-.61.61-1.07,1.23-1.39,1.87-.32.64-.48,1.33-.48,2.06,0,1.15.44,2.12,1.32,2.9.88.78,2.1,1.18,3.67,1.18,1.73,0,3.45-.49,5.16-1.46,1.71-.98,3.47-2.34,5.28-4.08,1.81-1.74,3.7-3.82,5.66-6.24,1.97-2.42,4.07-5.06,6.31-7.94,1.86-2.34,3.7-4.52,5.54-6.55,1.84-2.03,3.71-3.91,5.62-5.64,1.9-1.73,3.85-3.3,5.83-4.7,1.98-1.41,4.03-2.67,6.14-3.79.26-.13.5-.23.74-.31.24-.08.47-.12.7-.12.35,0,.57.09.65.26.08.18,0,.39-.22.65-2.11,2.11-4.08,4.58-5.9,7.39-1.82,2.82-3.4,5.75-4.73,8.81-1.33,3.06-2.38,6.12-3.17,9.19-.78,3.07-1.18,5.9-1.18,8.5,0,1.92.26,3.34.79,4.27.53.93,1.37,1.39,2.52,1.39,1.47,0,3.08-.67,4.82-2.02,1.74-1.34,3.42-3.22,5.02-5.62l2.93-4.46.77.43-3.02,4.42c-1.92,2.82-3.83,4.97-5.74,6.46-1.9,1.49-3.99,2.23-6.26,2.23-1.12,0-2.07-.18-2.86-.55-.78-.37-1.43-.91-1.94-1.63-.51-.72-.88-1.58-1.1-2.57-.22-.99-.34-2.11-.34-3.36,0-2.66.42-5.41,1.27-8.26.85-2.85,1.99-5.66,3.43-8.42,1.44-2.77,3.08-5.42,4.92-7.97,1.84-2.54,3.77-4.84,5.78-6.89l-.14.43ZM31.82,26.95h10.13l-.48.77h-10.42l.77-.77Z"/>
  <path class="cls-1" d="M75.19,21.87c.5.35.74.88.74,1.58,0,.38-.09.9-.26,1.54-.18.64-.4,1.34-.67,2.09-.27.75-.6,1.54-.98,2.38-.38.83-.8,1.63-1.25,2.4l-3.17,4.66c-.51,1.02-1.09,2.1-1.73,3.24-.64,1.14-1.35,2.18-2.14,3.14-.78.96-1.66,1.76-2.64,2.4-.98.64-2.06.96-3.24.96-1.41,0-2.48-.47-3.22-1.42-.74-.94-1.1-2.3-1.1-4.06,0-2.21.54-4.46,1.61-6.74,1.07-2.29,2.46-4.38,4.15-6.26,1.7-1.89,3.57-3.43,5.62-4.63,2.05-1.2,4.05-1.8,6-1.8,1.02,0,1.78.18,2.28.53ZM70.51,23.14c-.96.72-1.95,1.66-2.98,2.81-1.02,1.15-2.03,2.46-3.02,3.94-.99,1.47-1.88,2.97-2.66,4.49-.78,1.52-1.42,2.99-1.92,4.42-.5,1.42-.74,2.68-.74,3.77,0,.83.14,1.46.43,1.9.29.43.72.65,1.3.65.64,0,1.38-.3,2.21-.89.83-.59,1.73-1.52,2.69-2.78.96-1.26,1.98-2.89,3.05-4.87,1.07-1.98,2.18-4.37,3.34-7.15l.58-1.39c.83-2.02,1.29-3.51,1.37-4.49.08-.98-.28-1.46-1.08-1.46-.74,0-1.58.36-2.54,1.08ZM69.02,45.53c-.54-.51-.89-1.22-1.03-2.14-.14-.91-.09-1.99.17-3.24.26-1.25.7-2.64,1.34-4.18l2.45-5.71h4.22l-3.07,7.2c-1.02,2.43-1.62,4.3-1.78,5.62-.16,1.31.18,1.97,1.01,1.97.35,0,.77-.12,1.25-.36.48-.24,1.02-.62,1.63-1.13.61-.51,1.29-1.21,2.04-2.09.75-.88,1.58-1.96,2.47-3.24l3.89-5.47.72.48-3.89,5.52c-1.73,2.46-3.34,4.34-4.82,5.62-1.49,1.28-2.95,1.92-4.39,1.92-.93,0-1.66-.26-2.21-.77ZM71.9,30.27l8.59-20.74c.19-.45.42-.94.67-1.49.26-.54.53-1.05.82-1.51.29-.46.6-.86.94-1.18.34-.32.66-.48.98-.48.22,0,.44.04.65.12.21.08.46.12.74.12.13,0,.28-.03.46-.1.18-.06.42-.24.74-.53l.38.14-10.7,25.63h-4.27Z"/>
  <path class="cls-1" d="M81.98,35.79c.48-1.47,1.13-2.9,1.94-4.3s1.78-2.7,2.88-3.94c1.1-1.23,2.27-2.3,3.5-3.22,1.23-.91,2.5-1.64,3.82-2.18,1.31-.54,2.61-.82,3.89-.82,1.57,0,2.68.39,3.34,1.18.66.78.81,1.77.46,2.95-.45,1.57-1.7,3.13-3.74,4.68-2.05,1.55-4.91,3.06-8.59,4.54l-4.85,1.87-.05-.82,4.66-1.87c2.72-1.12,4.97-2.46,6.74-4.01,1.78-1.55,2.92-3.1,3.43-4.63.29-.83.33-1.54.12-2.14-.21-.59-.71-.89-1.51-.89s-1.62.3-2.54.89c-.93.59-1.85,1.38-2.76,2.35-.91.98-1.78,2.11-2.62,3.41-.83,1.3-1.58,2.62-2.23,3.98-.66,1.36-1.18,2.73-1.58,4.1-.4,1.38-.6,2.66-.6,3.84,0,1.38.31,2.42.94,3.12.62.7,1.54,1.06,2.76,1.06.9,0,1.9-.18,3.02-.53,1.12-.35,2.26-.87,3.41-1.56,1.15-.69,2.28-1.51,3.38-2.47s2.07-2.03,2.9-3.22l3.12-4.42.72.43-3.26,4.61c-.93,1.31-1.98,2.49-3.17,3.53-1.18,1.04-2.43,1.93-3.74,2.66-1.31.74-2.66,1.3-4.06,1.7-1.39.4-2.74.6-4.06.6-2.14,0-3.74-.54-4.8-1.63-1.06-1.09-1.58-2.62-1.58-4.61,0-1.38.24-2.8.72-4.27Z"/>
  <path class="cls-1" d="M102.91,45.53c-.54-.51-.89-1.22-1.03-2.14-.14-.91-.09-1.99.17-3.24.26-1.25.7-2.64,1.34-4.18l2.45-5.71,1.68-.48,2.54.48-3.07,7.2c-1.02,2.43-1.62,4.3-1.78,5.62-.16,1.31.18,1.97,1.01,1.97.35,0,.77-.12,1.25-.36.48-.24,1.02-.62,1.63-1.13.61-.51,1.29-1.21,2.04-2.09.75-.88,1.58-1.96,2.47-3.24l3.89-5.47.72.48-3.89,5.52c-1.73,2.46-3.34,4.34-4.82,5.62-1.49,1.28-2.95,1.92-4.39,1.92-.93,0-1.66-.26-2.21-.77ZM107.9,30.41l-2.06-.14,8.54-20.78c.16-.42.36-.89.6-1.42.24-.53.51-1.03.82-1.51s.62-.89.96-1.22c.34-.34.68-.5,1.03-.5.22,0,.44.04.65.12.21.08.46.12.74.12.13,0,.28-.03.46-.1.18-.06.41-.24.7-.53l.43.14-10.7,25.68-2.16.14Z"/>
  <path class="cls-1" d="M134.42,21.63c.53.19,1.1.29,1.7.29.35,0,.7-.06,1.06-.19.35-.13.74-.34,1.15-.62l.62.19-3.74,8.98-4.51,1.87-1.97,4.51c-.61,1.38-1.28,2.66-2.02,3.84-.74,1.18-1.53,2.2-2.38,3.05s-1.73,1.51-2.64,1.99c-.91.48-1.83.72-2.76.72-1.31,0-2.34-.47-3.1-1.42-.75-.94-1.13-2.28-1.13-4.01,0-1.47.26-2.97.77-4.49.51-1.52,1.19-3,2.04-4.44.85-1.44,1.85-2.8,3-4.08,1.15-1.28,2.38-2.4,3.67-3.36,1.3-.96,2.64-1.72,4.03-2.28,1.39-.56,2.74-.84,4.06-.84.9,0,1.61.1,2.14.29ZM129.77,23.11c-.98.7-1.98,1.64-3.02,2.81-1.04,1.17-2.06,2.49-3.07,3.96-1.01,1.47-1.9,2.96-2.69,4.46-.78,1.5-1.42,2.97-1.9,4.39-.48,1.42-.72,2.68-.72,3.77,0,.86.14,1.51.43,1.94.29.43.74.65,1.34.65.77,0,1.58-.35,2.45-1.06.86-.7,1.78-1.73,2.74-3.07.96-1.34,1.94-2.99,2.95-4.94,1.01-1.95,2.02-4.16,3.05-6.62l.58-1.39c.86-2.08,1.34-3.59,1.44-4.54.1-.94-.24-1.42-1.01-1.42s-1.59.35-2.57,1.06ZM128.06,45.53c-.54-.51-.89-1.22-1.03-2.14-.14-.91-.09-1.99.17-3.24.26-1.25.7-2.64,1.34-4.18l2.45-5.71,1.68-.48,2.54.48-3.07,7.2c-1.02,2.43-1.62,4.3-1.78,5.62-.16,1.31.18,1.97,1.01,1.97.35,0,.76-.12,1.22-.36.46-.24,1-.62,1.61-1.13.61-.51,1.3-1.21,2.06-2.09.77-.88,1.6-1.96,2.5-3.24l3.89-5.47.72.48-3.89,5.52c-1.73,2.46-3.34,4.34-4.82,5.62-1.49,1.28-2.95,1.92-4.39,1.92-.93,0-1.66-.26-2.21-.77Z"/>
  <path class="cls-1" d="M204.05,7.37c-.58.1-1.17.13-1.78.1-.51,0-1.03-.02-1.56-.07-.53-.05-1.04-.1-1.54-.14-.5-.05-.96-.09-1.39-.12-.43-.03-.78-.05-1.03-.05-.61.93-1.23,1.95-1.87,3.07-.64,1.12-1.28,2.32-1.92,3.6-.64,1.28-1.27,2.62-1.9,4.01-.62,1.39-1.24,2.82-1.85,4.3l-1.34,3.22c-1.54,3.55-3.11,6.65-4.73,9.29-1.62,2.64-3.3,4.83-5.06,6.58-1.76,1.74-3.56,3.04-5.4,3.89-1.84.85-3.74,1.27-5.69,1.27-1.38,0-2.62-.2-3.72-.6-1.1-.4-2.05-.94-2.83-1.63-.78-.69-1.39-1.49-1.82-2.4-.43-.91-.65-1.86-.65-2.86,0-.86.18-1.69.53-2.47.35-.78.9-1.48,1.63-2.09l3.22,3.36c-.61.61-1.04,1.22-1.3,1.82-.26.61-.38,1.28-.38,2.02,0,1.34.45,2.37,1.34,3.07.9.7,2.08,1.06,3.55,1.06,1.82,0,3.5-.54,5.04-1.61,1.54-1.07,2.97-2.52,4.3-4.34,1.33-1.82,2.61-3.97,3.84-6.43,1.23-2.46,2.44-5.1,3.62-7.92l1.34-3.17c.74-1.79,1.48-3.51,2.23-5.16.75-1.65,1.54-3.14,2.35-4.49.82-1.34,1.69-2.5,2.62-3.46.93-.96,1.95-1.63,3.07-2.02l-.05-.14c-.16-.03-.38-.05-.67-.05h-3.84c-4.74,0-8.99.28-12.77.84-3.78.56-6.99,1.39-9.65,2.5-2.66,1.1-4.69,2.47-6.1,4.1-1.41,1.63-2.11,3.52-2.11,5.66,0,2.3.78,4.12,2.33,5.45,1.55,1.33,3.66,1.99,6.31,1.99.8,0,1.7-.09,2.71-.26,1.01-.18,1.97-.5,2.88-.96.91-.46,1.67-1.1,2.28-1.9.61-.8.91-1.82.91-3.07s-.36-2.38-1.08-3.31c-.72-.93-1.83-1.73-3.34-2.4l2.35-2.5c1.28.83,2.17,1.77,2.66,2.81.5,1.04.74,2.15.74,3.34,0,1.54-.3,2.95-.91,4.25-.61,1.3-1.42,2.43-2.42,3.41-1.01.98-2.17,1.74-3.48,2.28-1.31.54-2.67.82-4.08.82-1.25,0-2.39-.22-3.43-.67-1.04-.45-1.94-1.07-2.71-1.87-.77-.8-1.36-1.77-1.78-2.9-.42-1.14-.62-2.39-.62-3.77,0-1.89.39-3.6,1.18-5.14.78-1.54,1.84-2.9,3.17-4.1,1.33-1.2,2.87-2.24,4.63-3.12,1.76-.88,3.61-1.62,5.54-2.21,1.94-.59,3.91-1.06,5.93-1.39,2.02-.34,3.92-.57,5.71-.7,1.41-.1,3.01-.15,4.8-.17,1.79-.02,3.66,0,5.62.05,1.95.05,3.9.13,5.83.24,1.94.11,3.74.23,5.4.36l-.1.48c-.22.03-.39.1-.5.22-.11.11-.21.24-.29.38-.08.14-.16.3-.24.48-.08.18-.2.36-.36.55-.35.45-.82.72-1.39.82Z"/>
  <path class="cls-1" d="M192.24,45.53c-.54-.51-.89-1.22-1.03-2.14-.14-.91-.09-1.99.17-3.24.26-1.25.7-2.64,1.34-4.18l2.45-5.71,1.68-.48,2.54.48-3.07,7.2c-1.02,2.43-1.62,4.3-1.78,5.62-.16,1.31.18,1.97,1.01,1.97.35,0,.77-.12,1.25-.36.48-.24,1.02-.62,1.63-1.13.61-.51,1.29-1.21,2.04-2.09.75-.88,1.58-1.96,2.47-3.24l3.89-5.47.72.48-3.89,5.52c-1.73,2.46-3.34,4.34-4.82,5.62-1.49,1.28-2.95,1.92-4.39,1.92-.93,0-1.66-.26-2.21-.77ZM200.49,21.89c.32.37.53.88.62,1.54.1.66.06,1.42-.1,2.3-.16.88-.46,1.83-.91,2.86l-.72,1.68-2.54.48-1.68-.48,1.92-4.56c.51-1.22.82-2.05.94-2.5.11-.45.04-.67-.22-.67-.13,0-.32.09-.58.26-.26.18-.54.39-.84.65-.3.26-.62.55-.96.89s-.65.66-.94.98l-.53-.48c1.02-1.09,1.94-1.94,2.76-2.57s1.64-.94,2.47-.94c.54,0,.98.18,1.3.55ZM204.93,13.3c-.34.4-.72.78-1.15,1.15-.43.37-.88.71-1.34,1.03-.46.32-.81.64-1.03.96-.29-.51-.52-1.04-.7-1.58-.18-.54-.26-1.04-.26-1.49,0-.77.28-1.39.84-1.87.56-.48,1.27-.72,2.14-.72.61,0,1.1.11,1.46.34.37.22.55.56.55,1.01,0,.38-.17.78-.5,1.18Z"/>
  <path class="cls-1" d="M218.08,23.04c-.85.59-1.71,1.39-2.59,2.4-.88,1.01-1.72,2.15-2.52,3.43-.8,1.28-1.52,2.61-2.16,3.98-.64,1.38-1.14,2.75-1.51,4.13-.37,1.38-.55,2.64-.55,3.79,0,1.44.33,2.5.98,3.17.66.67,1.58,1.01,2.76,1.01.86,0,1.83-.17,2.9-.5,1.07-.34,2.17-.85,3.29-1.54,1.12-.69,2.22-1.51,3.31-2.47s2.06-2.05,2.93-3.26l3.12-4.37.67.48-3.22,4.51c-.93,1.34-1.98,2.54-3.17,3.58-1.18,1.04-2.43,1.93-3.74,2.66-1.31.74-2.62,1.3-3.94,1.68-1.31.38-2.59.58-3.84.58-2.08,0-3.69-.54-4.82-1.63-1.14-1.09-1.7-2.64-1.7-4.66s.52-4.17,1.56-6.36c1.04-2.19,2.37-4.2,3.98-6.02,1.62-1.82,3.39-3.33,5.33-4.51,1.94-1.18,3.78-1.78,5.54-1.78.93,0,1.66.17,2.18.5s.89.8,1.08,1.39c.19.59.28,1.28.26,2.06-.02.78-.09,1.64-.22,2.57l-4.13,1.49c.38-1.12.71-2.13.98-3.02.27-.9.45-1.66.53-2.28.08-.62.06-1.1-.07-1.42-.13-.32-.4-.48-.82-.48-.77,0-1.58.3-2.42.89Z"/>
  <path class="cls-1" d="M253.34,33.1l-2.98,4.32c-1.15,1.7-2.21,3.11-3.17,4.25-.96,1.14-1.83,2.06-2.62,2.76-.78.7-1.52,1.2-2.21,1.49-.69.29-1.34.43-1.94.43-.99,0-1.78-.34-2.38-1.03-.59-.69-.89-1.7-.89-3.05,0-.48.06-1.01.19-1.58.13-.58.32-1.26.58-2.06.26-.8.62-1.76,1.08-2.88.46-1.12,1.05-2.46,1.75-4.03l.86-1.97c.99-2.34,1.57-4.06,1.73-5.18.16-1.12-.1-1.68-.77-1.68s-1.51.59-2.62,1.78c-1.1,1.18-2.57,3.1-4.39,5.76l-3.7,5.42c-.7,1.02-1.32,1.96-1.85,2.81-.53.85-.98,1.68-1.37,2.5-.38.82-.71,1.64-.98,2.47-.27.83-.52,1.73-.74,2.69-.77,0-1.36-.3-1.78-.91s-.62-1.46-.62-2.54c0-.54.05-1.1.14-1.68.1-.58.29-1.31.58-2.21.29-.9.7-2.03,1.22-3.41.53-1.38,1.24-3.14,2.14-5.28h4.22l-2.69,6.34h.1l4.61-6.72c1.02-1.5,1.94-2.78,2.74-3.82.8-1.04,1.53-1.9,2.18-2.57.66-.67,1.28-1.15,1.87-1.44.59-.29,1.18-.43,1.75-.43,1.02,0,1.82.39,2.4,1.18.58.78.86,1.93.86,3.43,0,.51-.05,1.04-.14,1.58-.1.54-.3,1.26-.6,2.14-.3.88-.73,1.98-1.27,3.31-.54,1.33-1.26,3.03-2.16,5.11l-.77,1.73c-.67,1.63-1.03,2.87-1.08,3.72-.05.85.22,1.27.79,1.27.32,0,.71-.13,1.18-.38.46-.26,1.02-.7,1.68-1.32.66-.62,1.43-1.46,2.33-2.52.9-1.06,1.9-2.4,3.02-4.03l2.93-4.18.77.43ZM249.88,5.11c-1.44.48-2.77,1.19-3.98,2.14-1.22.94-2.37,2.17-3.46,3.67-1.09,1.5-2.17,3.29-3.24,5.35-1.07,2.06-2.2,4.46-3.38,7.18l-3.02,6.82h-4.22l3.02-6.91c1.18-2.72,2.39-5.14,3.62-7.25,1.23-2.11,2.57-3.94,4.01-5.5,1.44-1.55,3.02-2.83,4.73-3.84,1.71-1.01,3.64-1.78,5.78-2.33l.14.67Z"/>
  <path class="cls-1" d="M269.44,21.63c.53.19,1.1.29,1.7.29.35,0,.7-.06,1.06-.19.35-.13.74-.34,1.15-.62l.62.19-3.74,8.98-4.51,1.87-1.97,4.51c-.61,1.38-1.28,2.66-2.02,3.84-.74,1.18-1.53,2.2-2.38,3.05s-1.73,1.51-2.64,1.99c-.91.48-1.83.72-2.76.72-1.31,0-2.34-.47-3.1-1.42-.75-.94-1.13-2.28-1.13-4.01,0-1.47.26-2.97.77-4.49.51-1.52,1.19-3,2.04-4.44.85-1.44,1.85-2.8,3-4.08,1.15-1.28,2.38-2.4,3.67-3.36,1.3-.96,2.64-1.72,4.03-2.28,1.39-.56,2.74-.84,4.06-.84.9,0,1.61.1,2.14.29ZM264.79,23.11c-.98.7-1.98,1.64-3.02,2.81-1.04,1.17-2.06,2.49-3.07,3.96-1.01,1.47-1.9,2.96-2.69,4.46-.78,1.5-1.42,2.97-1.9,4.39-.48,1.42-.72,2.68-.72,3.77,0,.86.14,1.51.43,1.94.29.43.74.65,1.34.65.77,0,1.58-.35,2.45-1.06.86-.7,1.78-1.73,2.74-3.07.96-1.34,1.94-2.99,2.95-4.94,1.01-1.95,2.02-4.16,3.05-6.62l.58-1.39c.86-2.08,1.34-3.59,1.44-4.54.1-.94-.24-1.42-1.01-1.42s-1.59.35-2.57,1.06ZM263.08,45.53c-.54-.51-.89-1.22-1.03-2.14-.14-.91-.09-1.99.17-3.24.26-1.25.7-2.64,1.34-4.18l2.45-5.71,1.68-.48,2.54.48-3.07,7.2c-1.02,2.43-1.62,4.3-1.78,5.62-.16,1.31.18,1.97,1.01,1.97.35,0,.76-.12,1.22-.36.46-.24,1-.62,1.61-1.13.61-.51,1.3-1.21,2.06-2.09.77-.88,1.6-1.96,2.5-3.24l3.89-5.47.72.48-3.89,5.52c-1.73,2.46-3.34,4.34-4.82,5.62-1.49,1.28-2.95,1.92-4.39,1.92-.93,0-1.66-.26-2.21-.77Z"/>
</svg>