<?xml version="1.0" encoding="UTF-8" standalone="no"?>
<svg
   width="1240"
   height="232.9528"
   viewBox="0 0 1240 232.9528"
   fill="none"
   version="1.1"
   id="svg1"
   sodipodi:docname="brainmarket-logo.svg"
   inkscape:version="1.4 (86a8ad7, 2024-10-11)"
   xmlns:inkscape="http://www.inkscape.org/namespaces/inkscape"
   xmlns:sodipodi="http://sodipodi.sourceforge.net/DTD/sodipodi-0.dtd"
   xmlns="http://www.w3.org/2000/svg"
   xmlns:svg="http://www.w3.org/2000/svg">
  <sodipodi:namedview
     id="namedview1"
     pagecolor="#ffffff"
     bordercolor="#000000"
     borderopacity="0.25"
     inkscape:showpageshadow="2"
     inkscape:pageopacity="0.0"
     inkscape:pagecheckerboard="0"
     inkscape:deskcolor="#d1d1d1"
     inkscape:zoom="0.66733203"
     inkscape:cx="365.63508"
     inkscape:cy="417.33348"
     inkscape:window-width="2560"
     inkscape:window-height="1369"
     inkscape:window-x="1912"
     inkscape:window-y="-8"
     inkscape:window-maximized="1"
     inkscape:current-layer="svg1" />
  <g
     id="Brain_market_logo_horizontalni_Barevne_Rgb 1"
     clip-path="url(#clip0_3002_2358)"
     transform="scale(7.7650936)">
    <g
       id="Components">
      <g
         id="_4d230252-18d7-4ad8-afa5-d1074ba1cd04_1">
        <path
           id="Vector"
           d="m 67.6599,6.40185 c 1.817,0 3.2404,-1.38095 3.2404,-3.1992 C 70.9003,1.38439 69.4768,0 67.6599,0 c -1.8184,0 -3.2432,1.38384 -3.2432,3.20265 0,1.8188 1.4248,3.1992 3.2432,3.1992 z"
           fill="#ec619f" />
        <path
           id="Vector_2"
           d="m 18.8959,16.3383 c -0.7132,-0.5972 -0.9394,-1.63 -0.3613,-2.3588 0.9743,-1.2282 1.5981,-2.9388 1.5981,-4.68826 0,-4.02445 -3.1177,-6.94615 -7.184,-6.94615 H 0 V 29.9735 h 13.976 c 4.3411,0 7.618,-3.177 7.618,-7.4809 0,-2.4566 -1.0437,-4.7692 -2.6981,-6.1543 z M 5.29057,7.24044 h 6.55823 c 0.9159,0 1.7835,0.48296 2.2239,1.28552 1.3617,2.48244 -0.2893,4.81314 -2.506,4.81314 H 5.29057 Z M 12.6324,25.0778 H 5.29057 v -7.0252 h 7.58703 c 0.9172,-1e-4 2.0976,0.6222 2.5609,1.414 1.5853,2.7092 -0.2533,5.6112 -2.8061,5.6112 z"
           fill="#6262f9" />
        <path
           id="Vector_3"
           d="m 96.7924,24.5258 c -0.9387,0 -1.6995,-0.7607 -1.6995,-1.6994 v -6.1282 c 0,-3.928 -3.0289,-7.2693 -6.951,-7.48988 -2.9129,-0.16378 -5.4812,0.80448 -7.4165,3.43858 -0.6795,-2.5625 -1.96,-4.13758 -2.1588,-4.36586 l -3.8452,3.34926 c 0.0577,0.0712 1.3004,1.7531 1.3004,4.3901 0,0.9208 0.0214,5.019 0.0214,5.956 0,1.7556 -1.5313,2.8619 -3.0072,2.8619 H 73.0285 C 71.5299,24.8355 70.151,23.2926 70.151,21.7751 L 70.1315,8.97949 h -5.1381 v 3.03541 c -1.582,-1.9342 -3.8348,-3.12205 -6.561,-3.12205 -5.1166,0 -9.5845,3.88545 -9.9036,10.35875 -0.0866,1.7709 -1.8089,2.7732 -3.3647,2.8175 -0.9865,0.0188 -2.6866,-0.2914 -2.9679,-2.741 -0.2908,-2.5395 2.0755,-5.5035 3.0114,-6.43 l -0.0027,-0.0028 0.0027,-0.0021 V 11.69 L 31.785,9.92259 C 31.5869,8.26302 30.244,6.99896 28.2296,6.99896 c -2.0144,0 -3.397,1.34121 -3.397,3.27744 0,1.3833 0.6715,2.6472 1.7385,3.3194 l -2.6623,13.41 c -0.2578,1.2983 0.736,2.5084 2.0595,2.5084 h 2.4992 l 2.8034,-14.7345 6.295,0.9156 c -0.4176,1.3039 -0.6459,2.7275 -0.4747,4.2182 0.5809,5.0656 4.3801,7.2949 7.9725,7.2949 0.0819,0 0.1644,-0.0014 0.2471,-0.0027 1.2288,-0.0353 2.4958,-0.3394 3.6615,-0.8938 0.7756,-0.3689 1.682,-0.193 2.2494,0.4526 1.7686,2.0127 4.3028,3.2355 7.211,3.2355 2.2428,0 4.4015,-0.8041 6.1003,-2.6197 0.7386,-0.7893 1.9922,-0.8783 2.7282,-0.0862 1.5095,1.6256 3.4847,2.6781 5.7569,2.6821 h 0.0201 c 4.4102,0 7.8988,-3.3883 8.1392,-7.8562 0.0014,-1.0973 -0.0214,-3.2973 -0.0235,-3.4785 0.0545,-2.6973 1.9284,-4.468 4.7339,-4.468 2.6476,0 4.3867,1.7763 4.3867,4.5059 v 5.5713 c 0,3.6757 1.6558,5.2542 5.4913,5.2542 H 97.227 V 24.526 Z M 59.0378,25.021 c -3.1626,0 -5.5343,-2.4109 -5.5343,-5.5745 0,-3.1606 2.3717,-5.5715 5.5343,-5.5715 3.2008,0 5.5725,2.4109 5.5725,5.5715 0,3.1636 -2.3717,5.5745 -5.5725,5.5745 z"
           fill="#6262f9" />
        <path
           id="Vector_4"
           d="m 144.472,17.6219 c -1.126,0 -1.992,0.7421 -2.202,1.8181 h 4.416 c -0.198,-1.0762 -1.089,-1.8181 -2.214,-1.8181 z"
           fill="#6262f9" />
        <path
           id="Vector_5"
           d="m 124.257,17.6714 c -1.299,0 -2.264,0.9771 -2.264,2.2757 0,1.2985 0.965,2.2756 2.264,2.2756 1.286,0 2.251,-0.9769 2.251,-2.2756 0,-1.2988 -0.965,-2.2757 -2.251,-2.2757 z"
           fill="#6262f9" />
        <path
           id="Vector_6"
           d="m 151.456,11.2901 h -41.158 c -4.547,0 -8.233,3.686 -8.233,8.2326 0,4.5466 3.686,8.2326 8.233,8.2326 h 41.158 c 4.547,0 8.233,-3.686 8.233,-8.2326 0,-4.5466 -3.686,-8.2326 -8.233,-8.2326 z M 119.884,23.101 h -0.322 c -0.952,0 -1.484,-0.5073 -1.484,-1.4347 v -2.3375 c 0,-1.0018 -0.643,-1.6574 -1.633,-1.6574 -1.039,0 -1.731,0.6679 -1.731,1.6823 v 3.7473 h -1.064 v -3.7722 c 0,-1.0018 -0.643,-1.6574 -1.633,-1.6574 -1.039,0 -1.731,0.6679 -1.731,1.6823 v 3.7473 h -1.064 v -6.3079 h 1.064 v 0.9029 c 0.445,-0.6801 1.162,-1.0512 2.065,-1.0512 1.014,0 1.794,0.4948 2.152,1.3111 0.446,-0.841 1.237,-1.3111 2.276,-1.3111 1.422,0 2.362,0.9403 2.362,2.3871 v 2.412 c 0,0.3833 0.236,0.6307 0.631,0.6307 h 0.112 z m 8.442,0 h -0.334 c -0.878,0 -1.398,-0.4329 -1.472,-1.2244 -0.52,0.8409 -1.397,1.3728 -2.461,1.3728 -1.806,0 -3.154,-1.4222 -3.154,-3.3023 0,-1.8802 1.348,-3.3024 3.154,-3.3024 1.051,0 1.929,0.5194 2.449,1.3482 V 16.793 h 1.063 v 4.6508 c 0,0.3833 0.248,0.6307 0.631,0.6307 h 0.124 z m 4.848,-5.3058 c -1.41,0 -2.263,0.841 -2.263,2.1396 v 3.1662 h -1.064 v -6.3079 h 1.064 v 1.1876 c 0.495,-0.8041 1.286,-1.2863 2.263,-1.2863 z m 7.2,5.3058 h -0.408 c -0.866,0 -1.534,-0.3835 -2.09,-1.1874 l -1.286,-1.5089 -1.002,0.8781 v 1.8181 h -1.064 v -8.9051 h 1.064 v 5.813 l 3.265,-3.2158 h 1.385 l -2.882,2.8573 1.509,1.744 c 0.346,0.4329 0.792,0.6802 1.212,0.6802 h 0.297 z m 7.425,-2.7087 h -5.541 c 0.185,1.1134 1.063,1.8802 2.263,1.8802 0.878,0 1.645,-0.4208 2.004,-1.0515 h 1.187 c -0.495,1.2122 -1.719,2.0284 -3.203,2.0284 -1.942,0 -3.389,-1.4222 -3.389,-3.3023 0,-1.8802 1.447,-3.3024 3.352,-3.3024 1.917,0 3.352,1.4224 3.352,3.3024 0,0.1237 -0.013,0.3216 -0.025,0.4452 z m 4.732,-2.6342 h -1.707 v 3.3144 c 0,0.6436 0.421,1.0515 1.089,1.0515 h 0.618 v 0.977 h -0.767 c -1.273,0 -2.003,-0.6801 -2.003,-1.8552 v -3.4879 h -1.138 V 16.793 h 0.73 c 0.296,0 0.47,-0.1607 0.47,-0.4699 v -1.2737 h 1.001 v 1.7436 h 1.707 z"
           fill="#6262f9" />
      </g>
    </g>
  </g>
  <defs
     id="defs1">
    <clipPath
       id="clip0_3002_2358">
      <rect
         width="159.689"
         height="30"
         fill="#ffffff"
         id="rect1"
         x="0"
         y="0" />
    </clipPath>
  </defs>
</svg>
