<?xml version="1.0" encoding="UTF-8"?>
<svg id="Logo" xmlns="http://www.w3.org/2000/svg" viewBox="0 0 1274.27 354.93">
  <defs>
    <style>
      .cls-1 {
        stroke-width: 6px;
      }

      .cls-1, .cls-2 {
        fill: none;
        stroke: #231f20;
        stroke-miterlimit: 10;
      }

      .cls-3 {
        fill: #f6851f;
      }

      .cls-3, .cls-4, .cls-5, .cls-6, .cls-7 {
        stroke-width: 0px;
      }

      .cls-4 {
        fill: #231f20;
      }

      .cls-5 {
        fill: #219ebc;
      }

      .cls-6 {
        fill: #fff;
      }

      .cls-7 {
        fill: #8fcae5;
      }

      .cls-2 {
        stroke-width: 8px;
      }
    </style>
  </defs>
  <g>
    <g>
      <path class="cls-3" d="M191.04,94.25l-14.71,41.17s-.9,3.18-3.56,3c-29.61-1.97-36.38,19.05-36.38,19.05,0,0-19.55,54.82-31.8,89.16l-1.16.26c-8.37-8.34-16.69-18.54-35.39-21.58-40.03-6.49-56.32,6.69-56.32,6.69h-.01c-5.65-17.16-8.7-35.49-8.7-54.54C3,81.11,81.11,3,177.47,3s174.47,78.11,174.47,174.47c0,14-1.65,27.62-4.77,40.67h-.01c-5.12,17.38-52.9,32.06-75.08,29.36-7.51-.92-10.37-1.27-11.96-1.64-.26-.09-.5-.16-.72-.2-2.23-.69-2.28-1.71-19.24-6.28-11.33-3.05-21.54-4.26-31.6-3.72l16.49-46.58c7.46-22.61-16.95-38.05-16.95-38.05-2.79-.99-.79-4.52-.79-4.52l14.79-41.23,3.79-10.57.35-.99,3.78-10.55c.13-.81-.73-1.95-.73-1.95l-28.57-10.15s-1.29-.42-1.81,1.06l-.07.26-3.31,9.33-.71,1.97-3.78,10.58Z"/>
      <path class="cls-7" d="M347.15,218.14h.01c-4.63,19.38-12.48,37.5-22.97,53.76h-.01c-21.05,18.4-54.7-22.63-64.06-26.04,1.58.37,4.44.72,11.96,1.64,22.18,2.7,69.96-11.98,75.08-29.36Z"/>
      <path class="cls-5" d="M140.71,256.96c5.91-1.51,12.82-4.04,21.02-7.85,17.37-8.07,31.93-12.68,46.83-13.46,10.06-.54,20.27.67,31.6,3.72,16.96,4.57,17,5.59,19.24,6.28.21.07.44.13.72.2,9.36,3.41,43.01,44.44,64.06,26.03h.01c-13,20.17-30.04,37.48-49.99,50.79-39.66-41.65-163.44-43.23-189.14-24.01,14.47-15.28,36.64-36.36,52.74-41.02.94-.2,1.92-.43,2.92-.69Z"/>
      <path class="cls-4" d="M229.29,81.21s.86,1.14.73,1.95l-3.78,10.55-30.72-12.01,3.31-9.33.07-.26c.52-1.48,1.81-1.06,1.81-1.06l28.57,10.15Z"/>
      <path class="cls-6" d="M208.1,151.03s24.4,15.43,16.95,38.05l-16.49,46.58c-14.9.78-29.46,5.39-46.83,13.46-8.2,3.81-15.11,6.34-21.02,7.85-.94.15-1.92.38-2.92.69-17.97,3.76-26.19-2.62-34.37-10.76l1.16-.26c12.25-34.35,31.8-89.16,31.8-89.16,0,0,6.77-21.02,36.38-19.05,2.66.17,3.56-3,3.56-3l14.71-41.17c13.29,2.24,30.53,10.77,31.07,11.03l-14.79,41.23s-2,3.54.79,4.52Z"/>
      <path class="cls-7" d="M274.2,322.68c-27.68,18.48-60.95,29.25-96.74,29.25-40.41,0-77.61-13.74-107.18-36.81.35-.42,6.21-7.42,14.77-16.45,25.7-19.23,149.48-17.64,189.14,24.01Z"/>
      <path class="cls-7" d="M103.42,246.89c8.18,8.14,16.4,14.52,34.37,10.76-16.1,4.66-38.27,25.74-52.74,41.02-8.56,9.03-14.42,16.03-14.77,16.45-27.01-21.05-47.66-49.87-58.59-83.12h.01s16.28-13.18,56.32-6.69c18.7,3.04,27.02,13.24,35.39,21.58Z"/>
    </g>
    <g>
      <path class="cls-1" d="M11.7,232c-5.65-17.16-8.7-35.49-8.7-54.54C3,81.11,81.11,3,177.47,3s174.47,78.11,174.47,174.47c0,14-1.65,27.62-4.77,40.67-4.63,19.38-12.48,37.5-22.97,53.76-13,20.16-30.04,37.46-49.99,50.78-27.68,18.48-60.95,29.25-96.74,29.25-40.41,0-77.61-13.74-107.18-36.81-27.01-21.05-47.66-49.87-58.59-83.12Z"/>
      <path class="cls-2" d="M226.25,93.71l3.78-10.55c.13-.81-.73-1.95-.73-1.95l-28.57-10.15s-1.29-.42-1.81,1.06l-.07.26-3.31,9.33"/>
      <path class="cls-2" d="M208.55,235.66l16.49-46.58c7.46-22.61-16.95-38.05-16.95-38.05-2.79-.99-.79-4.52-.79-4.52l14.79-41.23,3.79-10.57.35-.99"/>
      <path class="cls-2" d="M195.53,81.7l-.71,1.97-3.78,10.58-14.71,41.17s-.9,3.18-3.56,3c-29.61-1.97-36.38,19.05-36.38,19.05,0,0-19.55,54.82-31.8,89.16"/>
      <path class="cls-2" d="M225.9,94.7s-17.57-8.77-31.08-11.04h-.01"/>
      <path class="cls-2" d="M222.12,105.28h-.01c-.54-.27-17.77-8.79-31.07-11.04h-.01"/>
      <path class="cls-1" d="M11.71,232s16.28-13.18,56.32-6.69c18.7,3.04,27.02,13.24,35.39,21.58,8.18,8.14,16.4,14.52,34.37,10.76.94-.2,1.92-.43,2.92-.69,5.91-1.51,12.82-4.04,21.02-7.85,17.37-8.07,31.93-12.68,46.83-13.46,10.06-.54,20.27.67,31.6,3.72,16.96,4.57,17,5.59,19.24,6.28.21.07.44.13.72.2,1.58.37,4.44.72,11.96,1.64,22.18,2.7,69.96-11.98,75.08-29.36"/>
      <path class="cls-1" d="M70.27,315.13s0-.01.01-.01c.35-.42,6.21-7.42,14.77-16.45,14.47-15.28,36.64-36.36,52.74-41.02,1-.3,1.98-.54,2.92-.69.03-.01.08-.01.12-.02"/>
      <path class="cls-1" d="M259.39,245.66c.22.03.47.1.72.2,9.36,3.41,43.01,44.44,64.06,26.03"/>
      <path class="cls-1" d="M85.06,298.67c25.7-19.23,149.48-17.64,189.14,24.01"/>
    </g>
  </g>
  <path class="cls-4" d="M406.2,96.81c-3.26,0-5.7-.93-7.33-2.79-1.63-1.86-2.44-4.34-2.44-7.44,0-2.79.81-5.19,2.44-7.21,1.63-2.01,4.07-3.02,7.33-3.02,5.43.16,11.67.35,18.73.58,7.06.23,14.19.39,21.4.47,7.21.08,13.68.12,19.42.12,11.63,0,23.26-.12,34.89-.35,11.63-.23,23.11-.58,34.43-1.05,3.1-.15,5.47.81,7.1,2.91,1.63,2.09,2.44,4.54,2.44,7.33,0,2.95-.81,5.39-2.44,7.33-1.63,1.94-4.07,2.91-7.33,2.91-11.32.47-22.68.85-34.08,1.16-11.4.31-22.84.47-34.31.47-10.08,0-20.16-.12-30.24-.35-10.08-.23-20.09-.58-30.01-1.05ZM456.21,93.09c0-1.55.35-2.87,1.05-3.95.7-1.08,1.59-2.01,2.67-2.79,1.08-.77,2.29-1.36,3.61-1.74,1.32-.39,2.52-.58,3.61-.58,1.24,0,2.48.2,3.72.58,1.24.39,2.36.97,3.37,1.74,1.01.78,1.82,1.71,2.44,2.79.62,1.09.93,2.41.93,3.95,0,26.83-.47,53.27-1.4,79.32-.93,26.05-2.41,52.03-4.42,77.93-.16,2.17-.78,3.96-1.86,5.35-1.09,1.39-2.41,2.44-3.95,3.14-1.55.7-3.18,1.05-4.89,1.05s-3.41-.35-5.12-1.05c-1.71-.7-3.06-1.78-4.07-3.26-1.01-1.47-1.44-3.29-1.28-5.47,1.86-24.97,3.26-50.67,4.19-77.11.93-26.44,1.4-53.07,1.4-79.9Z"/>
  <path class="cls-4" d="M569.44,138.79c0-2.17.5-3.95,1.51-5.35,1.01-1.4,2.33-2.44,3.96-3.14,1.63-.7,3.29-1.05,5-1.05,3.1,0,5.7.78,7.79,2.33,2.09,1.55,3.14,3.95,3.14,7.21,0,11.17-.2,21.09-.58,29.78-.39,8.69-.81,16.98-1.28,24.89-.46,7.91-.89,16.25-1.28,25.01-.39,8.76-.66,18.88-.81,30.36,0,2.95-1.01,5.35-3.02,7.21-2.02,1.86-4.5,2.79-7.44,2.79-3.1,0-5.43-.7-6.98-2.09-1.55-1.4-2.6-3.18-3.14-5.35-.55-2.17-.81-4.42-.81-6.75,0-1.4.12-4.8.35-10.24.23-5.43.54-12.13.93-20.12.39-7.99.81-16.52,1.28-25.59.47-9.07.81-17.95,1.05-26.64.23-8.68.35-16.44.35-23.26ZM566.18,89.71c0-2.64.58-5.31,1.74-8.03,1.16-2.71,2.75-5,4.77-6.86,2.01-1.86,4.34-2.79,6.98-2.79,4.96,0,8.64,1.01,11.05,3.02,2.4,2.02,3.99,4.27,4.77,6.75.77,2.48,1.16,4.42,1.16,5.82,0,4.19-1.59,7.99-4.77,11.4-3.18,3.41-6.94,5.12-11.28,5.12-3.88,0-7.25-1.4-10.12-4.19-2.87-2.79-4.3-6.2-4.3-10.24Z"/>
  <path class="cls-4" d="M636.66,135.3c.47-2.33,1.7-4.11,3.72-5.35,2.01-1.24,4.19-1.86,6.51-1.86,3.1,0,5.54.89,7.33,2.67,1.78,1.78,2.67,4.15,2.67,7.1,0,1.55-.2,3.3-.58,5.23-.39,1.94-.81,4.69-1.28,8.26,3.57-5.12,7.33-9.42,11.28-12.91,3.96-3.49,8.1-6.12,12.45-7.91,4.34-1.78,8.76-2.68,13.26-2.68s8.64.85,12.91,2.56c4.26,1.71,8.06,4.42,11.4,8.14,3.33,3.72,5.85,8.69,7.56,14.89,3.57-5.43,7.56-10.12,11.98-14.07,4.42-3.95,9.15-7.01,14.19-9.19,5.04-2.17,10.2-3.26,15.47-3.26,7.75,0,14.11,1.67,19.07,5,4.96,3.34,8.92,7.83,11.86,13.49,2.94,5.66,5,12.18,6.16,19.54,1.16,7.37,1.74,15,1.74,22.91,0,5.12-.12,9.73-.35,13.84-.23,4.11-.58,8.3-1.05,12.56-.46,4.27-.97,8.96-1.51,14.07-.55,5.12-1.2,11.17-1.98,18.14-.46,3.1-1.71,5.55-3.72,7.33-2.02,1.78-4.34,2.67-6.98,2.67-3.57,0-6.21-1.01-7.91-3.02-1.71-2.01-2.56-4.57-2.56-7.68,0-1.4.23-3.87.7-7.44.47-3.57,1.05-7.91,1.74-13.03.7-5.12,1.28-10.78,1.74-16.98.47-6.2.7-12.64.7-19.31,0-15.66-1.67-26.6-5-32.8-3.34-6.2-8.18-9.3-14.54-9.3-3.41,0-7.06,1.16-10.93,3.49-3.88,2.33-7.6,5.47-11.17,9.42-3.57,3.95-6.59,8.37-9.07,13.26-2.48,4.89-4.11,9.97-4.89,15.24,0,2.95-.08,5.51-.23,7.68-.16,2.17-.27,4.23-.35,6.16-.08,1.94-.2,3.99-.35,6.16-.16,4.5-.43,8.96-.81,13.38-.39,4.42-.74,8.8-1.05,13.14-.31,4.34-.55,8.76-.7,13.26,0,3.26-1.01,5.7-3.02,7.33-2.02,1.63-4.58,2.44-7.68,2.44s-5.43-.81-7.44-2.44c-2.02-1.63-3.02-4.15-3.02-7.56.15-6.98.5-13.8,1.05-20.47.54-6.67,1.05-13.38,1.51-20.12.47-6.75.7-13.68.7-20.82,0-14.11-1.36-24.15-4.07-30.12-2.72-5.97-6.48-8.96-11.28-8.96-4.03,0-8.34,1.55-12.91,4.65-4.58,3.1-8.95,7.41-13.14,12.91-4.19,5.51-7.83,11.75-10.93,18.73-.31,7.76-.62,15.55-.93,23.38-.31,7.83-.62,15.24-.93,22.22-.31,6.98-.62,13.26-.93,18.84-.16,3.26-1.2,5.7-3.14,7.33-1.94,1.63-4.38,2.44-7.33,2.44s-5.51-.81-7.68-2.44c-2.17-1.63-3.18-4.15-3.02-7.56.47-10.85.85-21.63,1.16-32.33.31-10.7.7-21.4,1.16-32.1.31-8.06.77-16.09,1.4-24.08.62-7.99,1.63-16.01,3.02-24.08Z"/>
  <path class="cls-4" d="M887.66,255.34c-8.53,0-16.13-1.7-22.8-5.12-6.67-3.41-12.33-8.03-16.98-13.84s-8.18-12.33-10.58-19.54c-2.41-7.21-3.61-14.54-3.61-21.98,0-7.91,1.59-15.74,4.77-23.49,3.18-7.75,7.6-14.89,13.26-21.4,5.66-6.51,12.21-11.71,19.66-15.59,7.44-3.87,15.43-5.82,23.96-5.82,6.67,0,12.52,1.36,17.56,4.07,5.04,2.72,8.99,6.4,11.86,11.05,2.87,4.65,4.3,10.08,4.3,16.28,0,6.51-1.63,12.68-4.89,18.49s-7.83,10.51-13.72,14.07c-7.91,5.43-16.56,9.19-25.94,11.28-9.39,2.09-18.88,3.3-28.5,3.61,1.24,4.5,3.26,8.92,6.05,13.26,2.79,4.34,6.4,7.95,10.82,10.82,4.42,2.87,9.65,4.3,15.7,4.3,5.73,0,11.28-1.67,16.63-5,5.35-3.33,9.96-7.17,13.84-11.51.93-1.24,1.98-2.09,3.14-2.56,1.16-.47,2.29-.7,3.37-.7,1.86,0,3.57.47,5.12,1.4,1.55.93,2.79,2.17,3.72,3.72.93,1.55,1.4,3.26,1.4,5.12.15,1.24,0,2.44-.46,3.61-.47,1.16-1.24,2.29-2.33,3.37-5.74,6.2-12.45,11.44-20.12,15.7-7.68,4.27-16.09,6.4-25.24,6.4ZM855.09,188.34c6.2-.31,11.94-.81,17.21-1.51,5.27-.7,10.78-2.21,16.52-4.54,5.12-2.01,9.61-4.92,13.49-8.72,3.87-3.8,5.82-8.41,5.82-13.84,0-2.17-.51-4.15-1.51-5.93-1.01-1.78-2.48-3.26-4.42-4.42-1.94-1.16-4.46-1.74-7.56-1.74-4.97,0-9.69,1.24-14.19,3.72-4.5,2.48-8.53,5.7-12.1,9.65-3.57,3.95-6.48,8.34-8.72,13.14-2.25,4.81-3.76,9.54-4.54,14.19Z"/>
  <path class="cls-4" d="M971.86,135.3c.47-2.33,1.7-4.11,3.72-5.35,2.01-1.24,4.19-1.86,6.51-1.86,3.1,0,5.54.89,7.33,2.67,1.78,1.78,2.67,4.15,2.67,7.1,0,1.55-.2,3.3-.58,5.23-.39,1.94-.81,4.69-1.28,8.26,3.57-5.12,7.33-9.42,11.28-12.91,3.96-3.49,8.1-6.12,12.45-7.91,4.34-1.78,8.76-2.68,13.26-2.68s8.64.85,12.91,2.56c4.26,1.71,8.06,4.42,11.4,8.14,3.33,3.72,5.85,8.69,7.56,14.89,3.57-5.43,7.56-10.12,11.98-14.07,4.42-3.95,9.15-7.01,14.19-9.19,5.04-2.17,10.2-3.26,15.47-3.26,7.75,0,14.11,1.67,19.07,5,4.96,3.34,8.92,7.83,11.86,13.49,2.94,5.66,5,12.18,6.16,19.54,1.16,7.37,1.74,15,1.74,22.91,0,5.12-.12,9.73-.35,13.84-.23,4.11-.58,8.3-1.05,12.56-.46,4.27-.97,8.96-1.51,14.07-.55,5.12-1.2,11.17-1.98,18.14-.46,3.1-1.71,5.55-3.72,7.33-2.02,1.78-4.34,2.67-6.98,2.67-3.57,0-6.21-1.01-7.91-3.02-1.71-2.01-2.56-4.57-2.56-7.68,0-1.4.23-3.87.7-7.44.47-3.57,1.05-7.91,1.74-13.03.7-5.12,1.28-10.78,1.74-16.98.47-6.2.7-12.64.7-19.31,0-15.66-1.67-26.6-5-32.8-3.34-6.2-8.18-9.3-14.54-9.3-3.41,0-7.06,1.16-10.93,3.49-3.88,2.33-7.6,5.47-11.17,9.42-3.57,3.95-6.59,8.37-9.07,13.26-2.48,4.89-4.11,9.97-4.89,15.24,0,2.95-.08,5.51-.23,7.68-.16,2.17-.27,4.23-.35,6.16-.08,1.94-.2,3.99-.35,6.16-.16,4.5-.43,8.96-.81,13.38-.39,4.42-.74,8.8-1.05,13.14-.31,4.34-.55,8.76-.7,13.26,0,3.26-1.01,5.7-3.02,7.33-2.02,1.63-4.58,2.44-7.68,2.44s-5.43-.81-7.44-2.44c-2.02-1.63-3.02-4.15-3.02-7.56.15-6.98.5-13.8,1.05-20.47.54-6.67,1.05-13.38,1.51-20.12.47-6.75.7-13.68.7-20.82,0-14.11-1.36-24.15-4.07-30.12-2.72-5.97-6.48-8.96-11.28-8.96-4.03,0-8.34,1.55-12.91,4.65-4.58,3.1-8.95,7.41-13.14,12.91-4.19,5.51-7.83,11.75-10.93,18.73-.31,7.76-.62,15.55-.93,23.38-.31,7.83-.62,15.24-.93,22.22-.31,6.98-.62,13.26-.93,18.84-.16,3.26-1.2,5.7-3.14,7.33-1.94,1.63-4.38,2.44-7.33,2.44s-5.51-.81-7.68-2.44c-2.17-1.63-3.18-4.15-3.02-7.56.47-10.85.85-21.63,1.16-32.33.31-10.7.7-21.4,1.16-32.1.31-8.06.77-16.09,1.4-24.08.62-7.99,1.63-16.01,3.02-24.08Z"/>
  <path class="cls-4" d="M1224.95,128.33c3.57,0,7.13.35,10.7,1.05,3.57.7,6.9,1.71,10,3.02,3.1,1.32,5.74,2.99,7.91,5,7.13,5.74,12.37,13.18,15.7,22.33,3.33,9.15,5,18.77,5,28.85,0,8.53-1.09,16.79-3.26,24.77-2.17,7.99-5.35,15.2-9.54,21.63-4.19,6.44-9.3,11.55-15.35,15.35-6.05,3.8-12.95,5.7-20.7,5.7s-15.24-1.7-21.98-5.12c-6.75-3.41-12.68-8.06-17.8-13.96-5.12-5.89-9.07-12.68-11.86-20.35-2.79-7.68-4.19-15.78-4.19-24.31,0-8.06,1.2-15.89,3.61-23.49,2.4-7.6,5.97-14.46,10.7-20.59,4.73-6.12,10.54-10.97,17.45-14.54,6.9-3.57,14.77-5.35,23.61-5.35ZM1190.99,190.67c0,7.76,1.32,15.08,3.96,21.98,2.64,6.9,6.47,12.49,11.51,16.75,5.04,4.27,11.13,6.4,18.26,6.4,4.96,0,9.23-1.36,12.79-4.07,3.57-2.71,6.51-6.36,8.84-10.93,2.33-4.57,4.03-9.57,5.12-15,1.08-5.43,1.63-10.78,1.63-16.05,0-9.46-1.51-17.48-4.54-24.08-3.02-6.59-7.09-11.67-12.21-15.24-2.02-.62-3.99-1.05-5.93-1.28-1.94-.23-3.92-.35-5.93-.35-5.27,0-10,1.13-14.19,3.37-4.19,2.25-7.72,5.35-10.58,9.3-2.87,3.96-5.04,8.41-6.51,13.38-1.48,4.97-2.21,10.24-2.21,15.82Z"/>
</svg>